<svg width="130" height="24" viewBox="0 0 130 24" fill="none" xmlns="http://www.w3.org/2000/svg">
<g clip-path="url(#clip0_1_230)">
<path d="M19 9L20.25 6.25L23 5L20.25 3.75L19 1L17.75 3.75L15 5L17.75 6.25L19 9Z" fill="#464646"/>
<path d="M19 15L17.75 17.75L15 19L17.75 20.25L19 23L20.25 20.25L23 19L20.25 17.75L19 15Z" fill="#464646"/>
<path d="M11.5 9.5L9 4L6.5 9.5L1 12L6.5 14.5L9 20L11.5 14.5L17 12L11.5 9.5ZM9.99 12.99L9 15.17L8.01 12.99L5.83 12L8.01 11.01L9 8.83L9.99 11.01L12.17 12L9.99 12.99Z" fill="#464646"/>
</g>
<path d="M32.608 15.18C32.7467 15.276 32.992 15.3933 33.344 15.532C33.696 15.66 34.112 15.724 34.592 15.724C35.008 15.724 35.3493 15.6547 35.616 15.516C35.8827 15.3667 36.0853 15.148 36.224 14.86C36.3733 14.572 36.4693 14.1987 36.512 13.74C36.5653 13.2813 36.592 12.732 36.592 12.092V6.14H38.8V11.916C38.8 12.7693 38.752 13.548 38.656 14.252C38.56 14.956 38.3733 15.564 38.096 16.076C37.8187 16.588 37.3973 16.9827 36.832 17.26C36.2773 17.5373 35.536 17.676 34.608 17.676C34.096 17.676 33.6373 17.6173 33.232 17.5C32.8267 17.3827 32.4533 17.2067 32.112 16.972L32.608 15.18ZM44.5668 17.66C43.8841 17.66 43.2708 17.548 42.7268 17.324C42.1828 17.0893 41.7188 16.7693 41.3348 16.364C40.9614 15.9587 40.6734 15.4947 40.4708 14.972C40.2681 14.4493 40.1668 13.9 40.1668 13.324C40.1668 12.7373 40.2681 12.1827 40.4708 11.66C40.6734 11.1373 40.9614 10.6733 41.3348 10.268C41.7188 9.86267 42.1828 9.548 42.7268 9.324C43.2708 9.08933 43.8841 8.972 44.5668 8.972C45.2494 8.972 45.8574 9.08933 46.3908 9.324C46.9348 9.548 47.3988 9.86267 47.7828 10.268C48.1668 10.6733 48.4548 11.1373 48.6468 11.66C48.8494 12.1827 48.9508 12.7373 48.9508 13.324C48.9508 13.9 48.8494 14.4493 48.6468 14.972C48.4548 15.4947 48.1668 15.9587 47.7828 16.364C47.4094 16.7693 46.9508 17.0893 46.4068 17.324C45.8628 17.548 45.2494 17.66 44.5668 17.66ZM42.3748 13.324C42.3748 13.8147 42.4708 14.252 42.6628 14.636C42.8548 15.0093 43.1161 15.3027 43.4468 15.516C43.7774 15.7293 44.1508 15.836 44.5668 15.836C44.9721 15.836 45.3401 15.7293 45.6708 15.516C46.0014 15.292 46.2628 14.9933 46.4548 14.62C46.6574 14.236 46.7588 13.7987 46.7588 13.308C46.7588 12.828 46.6574 12.396 46.4548 12.012C46.2628 11.628 46.0014 11.3293 45.6708 11.116C45.3401 10.9027 44.9721 10.796 44.5668 10.796C44.1508 10.796 43.7774 10.908 43.4468 11.132C43.1161 11.3453 42.8548 11.644 42.6628 12.028C42.4708 12.4013 42.3748 12.8333 42.3748 13.324ZM53.4859 17.66C52.7712 17.66 52.0885 17.5427 51.4379 17.308C50.7872 17.0733 50.2272 16.7267 49.7579 16.268L50.5259 14.876C51.0272 15.2813 51.5179 15.58 51.9979 15.772C52.4885 15.964 52.9579 16.06 53.4059 16.06C53.8219 16.06 54.1525 15.9853 54.3979 15.836C54.6539 15.6867 54.7819 15.4627 54.7819 15.164C54.7819 14.9613 54.7125 14.8067 54.5739 14.7C54.4352 14.5827 54.2325 14.4813 53.9659 14.396C53.7099 14.3107 53.3952 14.2147 53.0219 14.108C52.4032 13.9053 51.8859 13.708 51.4699 13.516C51.0539 13.324 50.7392 13.084 50.5259 12.796C50.3232 12.4973 50.2219 12.1187 50.2219 11.66C50.2219 11.1053 50.3605 10.6307 50.6379 10.236C50.9259 9.83067 51.3205 9.516 51.8219 9.292C52.3339 9.068 52.9312 8.956 53.6139 8.956C54.2112 8.956 54.7765 9.052 55.3099 9.244C55.8432 9.42533 56.3285 9.724 56.7659 10.14L55.9019 11.5C55.4752 11.1693 55.0699 10.9293 54.6859 10.78C54.3019 10.62 53.9125 10.54 53.5179 10.54C53.2939 10.54 53.0805 10.5667 52.8779 10.62C52.6859 10.6733 52.5259 10.764 52.3979 10.892C52.2805 11.0093 52.2219 11.18 52.2219 11.404C52.2219 11.6067 52.2752 11.7667 52.3819 11.884C52.4992 11.9907 52.6699 12.0867 52.8939 12.172C53.1285 12.2573 53.4112 12.3533 53.7419 12.46C54.4139 12.652 54.9792 12.8493 55.4379 13.052C55.9072 13.2547 56.2592 13.5053 56.4939 13.804C56.7285 14.092 56.8459 14.492 56.8459 15.004C56.8459 15.836 56.5419 16.4867 55.9339 16.956C55.3259 17.4253 54.5099 17.66 53.4859 17.66ZM62.1921 17.66C61.5201 17.66 60.9121 17.548 60.3681 17.324C59.8241 17.0893 59.3601 16.7747 58.9761 16.38C58.5921 15.9747 58.2935 15.516 58.0801 15.004C57.8775 14.4813 57.7761 13.932 57.7761 13.356C57.7761 12.556 57.9521 11.8253 58.3041 11.164C58.6668 10.5027 59.1788 9.97467 59.8401 9.58C60.5121 9.17467 61.3015 8.972 62.2081 8.972C63.1255 8.972 63.9095 9.17467 64.5601 9.58C65.2108 9.97467 65.7068 10.5027 66.0481 11.164C66.4001 11.8147 66.5761 12.5187 66.5761 13.276C66.5761 13.404 66.5708 13.5373 66.5601 13.676C66.5495 13.804 66.5388 13.9107 66.5281 13.996H60.0481C60.0908 14.4227 60.2135 14.796 60.4161 15.116C60.6295 15.436 60.8961 15.6813 61.2161 15.852C61.5468 16.012 61.8988 16.092 62.2721 16.092C62.6988 16.092 63.0988 15.9907 63.4721 15.788C63.8561 15.5747 64.1175 15.2973 64.2561 14.956L66.0961 15.468C65.8935 15.8947 65.6001 16.2733 65.2161 16.604C64.8428 16.9347 64.4001 17.196 63.8881 17.388C63.3761 17.5693 62.8108 17.66 62.1921 17.66ZM60.0001 12.636H64.3841C64.3415 12.2093 64.2188 11.8413 64.0161 11.532C63.8241 11.212 63.5681 10.9667 63.2481 10.796C62.9281 10.6147 62.5708 10.524 62.1761 10.524C61.7921 10.524 61.4401 10.6147 61.1201 10.796C60.8108 10.9667 60.5548 11.212 60.3521 11.532C60.1601 11.8413 60.0428 12.2093 60.0001 12.636ZM62.8801 8.14L61.5041 7.724L62.3681 5.82H64.3681L62.8801 8.14ZM71.23 15.836L77.566 8.076H71.406V6.14H80.19V7.804L74.062 15.564H80.238V17.5H71.23V15.836ZM81.15 15.02C81.15 14.476 81.2993 14.0013 81.598 13.596C81.9073 13.18 82.334 12.86 82.878 12.636C83.422 12.412 84.046 12.3 84.75 12.3C85.102 12.3 85.4593 12.3267 85.822 12.38C86.1847 12.4333 86.4993 12.5187 86.766 12.636V12.188C86.766 11.6547 86.606 11.244 86.286 10.956C85.9767 10.668 85.5127 10.524 84.894 10.524C84.4353 10.524 83.998 10.604 83.582 10.764C83.166 10.924 82.7287 11.1587 82.27 11.468L81.582 10.06C82.1367 9.69733 82.702 9.42533 83.278 9.244C83.8647 9.06267 84.478 8.972 85.118 8.972C86.3127 8.972 87.2407 9.27067 87.902 9.868C88.574 10.4653 88.91 11.3187 88.91 12.428V15.1C88.91 15.324 88.9473 15.484 89.022 15.58C89.1073 15.676 89.2407 15.7347 89.422 15.756V17.5C89.23 17.532 89.054 17.5587 88.894 17.58C88.7447 17.6013 88.6167 17.612 88.51 17.612C88.0833 17.612 87.758 17.516 87.534 17.324C87.3207 17.132 87.1873 16.8973 87.134 16.62L87.086 16.188C86.7233 16.6573 86.27 17.02 85.726 17.276C85.182 17.532 84.6273 17.66 84.062 17.66C83.5073 17.66 83.006 17.548 82.558 17.324C82.1207 17.0893 81.774 16.7747 81.518 16.38C81.2727 15.9747 81.15 15.5213 81.15 15.02ZM86.366 15.452C86.4833 15.324 86.5793 15.196 86.654 15.068C86.7287 14.94 86.766 14.8227 86.766 14.716V13.868C86.51 13.7613 86.2327 13.6813 85.934 13.628C85.6353 13.564 85.3527 13.532 85.086 13.532C84.5313 13.532 84.0727 13.6547 83.71 13.9C83.358 14.1347 83.182 14.4493 83.182 14.844C83.182 15.0573 83.2407 15.26 83.358 15.452C83.4753 15.644 83.646 15.7987 83.87 15.916C84.094 16.0333 84.3607 16.092 84.67 16.092C84.99 16.092 85.3047 16.0333 85.614 15.916C85.9233 15.788 86.174 15.6333 86.366 15.452ZM103.938 17.5H101.794V12.796C101.794 12.1347 101.676 11.6493 101.442 11.34C101.218 11.02 100.903 10.86 100.498 10.86C100.082 10.86 99.6815 11.0253 99.2975 11.356C98.9242 11.676 98.6575 12.0973 98.4975 12.62V17.5H96.3535V12.796C96.3535 12.124 96.2362 11.6333 96.0015 11.324C95.7775 11.0147 95.4628 10.86 95.0575 10.86C94.6415 10.86 94.2415 11.02 93.8575 11.34C93.4842 11.66 93.2175 12.0813 93.0575 12.604V17.5H90.9135V9.116H92.8495V10.668C93.1695 10.124 93.5962 9.708 94.1295 9.42C94.6628 9.12133 95.2762 8.972 95.9695 8.972C96.6628 8.972 97.2015 9.14267 97.5855 9.484C97.9802 9.82533 98.2308 10.2467 98.3375 10.748C98.6788 10.172 99.1108 9.73467 99.6335 9.436C100.167 9.12667 100.764 8.972 101.426 8.972C101.948 8.972 102.37 9.068 102.69 9.26C103.02 9.44133 103.276 9.692 103.458 10.012C103.639 10.3213 103.762 10.6733 103.826 11.068C103.9 11.4627 103.938 11.8627 103.938 12.268V17.5ZM109.676 17.66C108.993 17.66 108.38 17.548 107.836 17.324C107.292 17.0893 106.828 16.7693 106.444 16.364C106.071 15.9587 105.783 15.4947 105.58 14.972C105.377 14.4493 105.276 13.9 105.276 13.324C105.276 12.7373 105.377 12.1827 105.58 11.66C105.783 11.1373 106.071 10.6733 106.444 10.268C106.828 9.86267 107.292 9.548 107.836 9.324C108.38 9.08933 108.993 8.972 109.676 8.972C110.359 8.972 110.967 9.08933 111.5 9.324C112.044 9.548 112.508 9.86267 112.892 10.268C113.276 10.6733 113.564 11.1373 113.756 11.66C113.959 12.1827 114.06 12.7373 114.06 13.324C114.06 13.9 113.959 14.4493 113.756 14.972C113.564 15.4947 113.276 15.9587 112.892 16.364C112.519 16.7693 112.06 17.0893 111.516 17.324C110.972 17.548 110.359 17.66 109.676 17.66ZM107.484 13.324C107.484 13.8147 107.58 14.252 107.772 14.636C107.964 15.0093 108.225 15.3027 108.556 15.516C108.887 15.7293 109.26 15.836 109.676 15.836C110.081 15.836 110.449 15.7293 110.78 15.516C111.111 15.292 111.372 14.9933 111.564 14.62C111.767 14.236 111.868 13.7987 111.868 13.308C111.868 12.828 111.767 12.396 111.564 12.012C111.372 11.628 111.111 11.3293 110.78 11.116C110.449 10.9027 110.081 10.796 109.676 10.796C109.26 10.796 108.887 10.908 108.556 11.132C108.225 11.3453 107.964 11.644 107.772 12.028C107.58 12.4013 107.484 12.8333 107.484 13.324ZM120.499 10.972C119.849 10.972 119.267 11.1 118.755 11.356C118.243 11.6013 117.875 11.9587 117.651 12.428V17.5H115.507V9.116H117.475V10.908C117.774 10.332 118.153 9.87867 118.611 9.548C119.07 9.21733 119.555 9.036 120.067 9.004C120.185 9.004 120.275 9.004 120.339 9.004C120.403 9.004 120.457 9.00933 120.499 9.02V10.972ZM121.072 15.02C121.072 14.476 121.221 14.0013 121.52 13.596C121.829 13.18 122.256 12.86 122.8 12.636C123.344 12.412 123.968 12.3 124.672 12.3C125.024 12.3 125.381 12.3267 125.744 12.38C126.107 12.4333 126.421 12.5187 126.688 12.636V12.188C126.688 11.6547 126.528 11.244 126.208 10.956C125.899 10.668 125.435 10.524 124.816 10.524C124.357 10.524 123.92 10.604 123.504 10.764C123.088 10.924 122.651 11.1587 122.192 11.468L121.504 10.06C122.059 9.69733 122.624 9.42533 123.2 9.244C123.787 9.06267 124.4 8.972 125.04 8.972C126.235 8.972 127.163 9.27067 127.824 9.868C128.496 10.4653 128.832 11.3187 128.832 12.428V15.1C128.832 15.324 128.869 15.484 128.944 15.58C129.029 15.676 129.163 15.7347 129.344 15.756V17.5C129.152 17.532 128.976 17.5587 128.816 17.58C128.667 17.6013 128.539 17.612 128.432 17.612C128.005 17.612 127.68 17.516 127.456 17.324C127.243 17.132 127.109 16.8973 127.056 16.62L127.008 16.188C126.645 16.6573 126.192 17.02 125.648 17.276C125.104 17.532 124.549 17.66 123.984 17.66C123.429 17.66 122.928 17.548 122.48 17.324C122.043 17.0893 121.696 16.7747 121.44 16.38C121.195 15.9747 121.072 15.5213 121.072 15.02ZM126.288 15.452C126.405 15.324 126.501 15.196 126.576 15.068C126.651 14.94 126.688 14.8227 126.688 14.716V13.868C126.432 13.7613 126.155 13.6813 125.856 13.628C125.557 13.564 125.275 13.532 125.008 13.532C124.453 13.532 123.995 13.6547 123.632 13.9C123.28 14.1347 123.104 14.4493 123.104 14.844C123.104 15.0573 123.163 15.26 123.28 15.452C123.397 15.644 123.568 15.7987 123.792 15.916C124.016 16.0333 124.283 16.092 124.592 16.092C124.912 16.092 125.227 16.0333 125.536 15.916C125.845 15.788 126.096 15.6333 126.288 15.452Z" fill="#464646"/>
<defs>
<clipPath id="clip0_1_230">
<rect width="24" height="24" fill="white"/>
</clipPath>
</defs>
</svg>
